HIERARCHY
ROOT hip
{
  OFFSET 0 0 0
  CHANNELS 6 Xposition Yposition Zposition Zrotation Yrotation Xrotation
  JOINT abdomen
  {
    OFFSET 0 20.6881 -0.73152
    CHANNELS 3 Zrotation Xrotation Yrotation
    JOINT chest
    {
      OFFSET 0 11.7043 -0.48768
      CHANNELS 3 Zrotation Xrotation Yrotation
      JOINT neck
      {
        OFFSET 0 22.1894 -2.19456
        CHANNELS 3 Zrotation Xrotation Yrotation
        JOINT head
        {
          OFFSET -0.24384 7.07133 1.2192
          CHANNELS 3 Zrotation Xrotation Yrotation
          JOINT leftEye
          {
            OFFSET 4.14528 8.04674 8.04672
            CHANNELS 3 Zrotation Xrotation Yrotation
            End Site
            {
              OFFSET 1 0 0
            }
          }
          JOINT rightEye
          {
            OFFSET -3.6576 8.04674 8.04672
            CHANNELS 3 Zrotation Xrotation Yrotation
            End Site
            {
              OFFSET 1 0 0
            }
          }
        }
      }
      JOINT rCollar
      {
        OFFSET -2.68224 19.2634 -4.8768
        CHANNELS 3 Zrotation Xrotation Yrotation
        JOINT rShldr
        {
          OFFSET -8.77824 -1.95073 1.46304
          CHANNELS 3 Zrotation Xrotation Yrotation
          JOINT rForeArm
          {
            OFFSET -28.1742 -1.7115 0.48768
            CHANNELS 3 Zrotation Xrotation Yrotation
            JOINT rHand
            {
              OFFSET -22.5879 0.773209 7.07136
              CHANNELS 3 Zrotation Xrotation Yrotation
              JOINT rThumb1
              {
                OFFSET -1.2192 -0.487915 3.41376
                CHANNELS 3 Zrotation Xrotation Yrotation
                JOINT rThumb2
                {
                  OFFSET -3.37035 -0.52449 3.41376
                  CHANNELS 3 Zrotation Xrotation Yrotation
                  End Site
                  {
                    OFFSET -1.78271 -1.18214 1.43049
                  }
                }
              }
              JOINT rIndex1
              {
                OFFSET -7.75947 0.938293 5.60832
                CHANNELS 3 Zrotation Xrotation Yrotation
                JOINT rIndex2
                {
                  OFFSET -2.54057 -0.884171 1.56538
                  CHANNELS 3 Zrotation Xrotation Yrotation
                  End Site
                  {
                    OFFSET -1.62519 -0.234802 1.16502
                  }
                }
              }
              JOINT rMid1
              {
                OFFSET -8.24714 1.18213 3.41376
                CHANNELS 3 Zrotation Xrotation Yrotation
                JOINT rMid2
                {
                  OFFSET -3.10165 -0.590103 1.0647
                  CHANNELS 3 Zrotation Xrotation Yrotation
                  End Site
                  {
                    OFFSET -2.48547 -0.328903 0.83742
                  }
                }
              }
              JOINT rRing1
              {
                OFFSET -8.82822 0.546677 1.51678
                CHANNELS 3 Zrotation Xrotation Yrotation
                JOINT rRing2
                {
                  OFFSET -2.60934 -0.819778 -0.0198488
                  CHANNELS 3 Zrotation Xrotation Yrotation
                  End Site
                  {
                    OFFSET -2.33842 -0.294052 0.168128
                  }
                }
              }
              JOINT rPinky1
              {
                OFFSET -8.27202 -0.0477905 -0.4584
                CHANNELS 3 Zrotation Xrotation Yrotation
                JOINT rPinky2
                {
                  OFFSET -1.82734 -0.647385 -0.700984
                  CHANNELS 3 Zrotation Xrotation Yrotation
                  End Site
                  {
                    OFFSET -1.69225 -0.51767 -0.607171
                  }
                }
              }
            }
          }
        }
      }
      JOINT lCollar
      {
        OFFSET 2.68224 19.2634 -4.8768
        CHANNELS 3 Zrotation Xrotation Yrotation
        JOINT lShldr
        {
          OFFSET 8.77824 -1.95073 1.46304
          CHANNELS 3 Zrotation Xrotation Yrotation
          JOINT lForeArm
          {
            OFFSET 28.1742 -1.7115 0.48768
            CHANNELS 3 Zrotation Xrotation Yrotation
            JOINT lHand
            {
              OFFSET 22.5879 0.773209 7.07136
              CHANNELS 3 Zrotation Xrotation Yrotation
              JOINT lThumb1
              {
                OFFSET 1.2192 -0.487915 3.41376
                CHANNELS 3 Zrotation Xrotation Yrotation
                JOINT lThumb2
                {
                  OFFSET 3.37035 -0.52449 3.41376
                  CHANNELS 3 Zrotation Xrotation Yrotation
                  End Site
                  {
                    OFFSET 1.78271 -1.18214 1.43049
                  }
                }
              }
              JOINT lIndex1
              {
                OFFSET 7.75947 0.938293 5.60832
                CHANNELS 3 Zrotation Xrotation Yrotation
                JOINT lIndex2
                {
                  OFFSET 2.54057 -0.884171 1.56538
                  CHANNELS 3 Zrotation Xrotation Yrotation
                  End Site
                  {
                    OFFSET 1.62519 -0.234802 1.16502
                  }
                }
              }
              JOINT lMid1
              {
                OFFSET 8.24714 1.18213 3.41376
                CHANNELS 3 Zrotation Xrotation Yrotation
                JOINT lMid2
                {
                  OFFSET 3.10165 -0.590103 1.0647
                  CHANNELS 3 Zrotation Xrotation Yrotation
                  End Site
                  {
                    OFFSET 2.48547 -0.328903 0.83742
                  }
                }
              }
              JOINT lRing1
              {
                OFFSET 8.82822 0.546677 1.51678
                CHANNELS 3 Zrotation Xrotation Yrotation
                JOINT lRing2
                {
                  OFFSET 2.60934 -0.819778 -0.0198488
                  CHANNELS 3 Zrotation Xrotation Yrotation
                  End Site
                  {
                    OFFSET 2.33842 -0.294052 0.168128
                  }
                }
              }
              JOINT lPinky1
              {
                OFFSET 8.27202 -0.0477905 -0.4584
                CHANNELS 3 Zrotation Xrotation Yrotation
                JOINT lPinky2
                {
                  OFFSET 1.82734 -0.647385 -0.700984
                  CHANNELS 3 Zrotation Xrotation Yrotation
                  End Site
                  {
                    OFFSET 1.69225 -0.51767 -0.607171
                  }
                }
              }
            }
          }
        }
      }
    }
  }
  JOINT rButtock
  {
    OFFSET -8.77824 4.35084 1.2192
    CHANNELS 3 Zrotation Xrotation Yrotation
    JOINT rThigh
    {
      OFFSET 0 -1.70687 -2.19456
      CHANNELS 3 Zrotation Xrotation Yrotation
      JOINT rShin
      {
        OFFSET 0 -36.8199 0.73152
        CHANNELS 3 Zrotation Xrotation Yrotation
        JOINT rFoot
        {
          OFFSET 0.73152 -45.1104 -5.12064
          CHANNELS 3 Zrotation Xrotation Yrotation
          End Site
          {
            OFFSET -1.1221 -3.69964 12.103
          }
        }
      }
    }
  }
  JOINT lButtock
  {
    OFFSET 8.77824 4.35084 1.2192
    CHANNELS 3 Zrotation Xrotation Yrotation
    JOINT lThigh
    {
      OFFSET 0 -1.70687 -2.19456
      CHANNELS 3 Zrotation Xrotation Yrotation
      JOINT lShin
      {
        OFFSET 0 -36.8199 0.73152
        CHANNELS 3 Zrotation Xrotation Yrotation
        JOINT lFoot
        {
          OFFSET -0.73152 -45.1104 -5.12064
          CHANNELS 3 Zrotation Xrotation Yrotation
          End Site
          {
            OFFSET 1.1221 -3.69964 12.103
          }
        }
      }
    }
  }
}
MOTION
Frames:	7
Frame Time:	0.03333
0.0 0.0 0.0 0.0 0.0 0.0 0.0 0.0 0.0 0.0 0.0 0.0 0.0 0.0 0.0 0.0 0.0 0.0 0.0 0.0 0.0 0.0 0.0 0.0 0.0 0.0 0.0 0.0 0.0 0.0 0.0 0.0 0.0 0.0 0.0 0.0 0.0 0.0 0.0 0.0 0.0 0.0 0.0 0.0 0.0 0.0 0.0 0.0 0.0 0.0 0.0 0.0 0.0 0.0 0.0 0.0 0.0 0.0 0.0 0.0 0.0 0.0 0.0 0.0 0.0 0.0 0.0 0.0 0.0 0.0 0.0 0.0 0.0 0.0 0.0 0.0 0.0 0.0 0.0 0.0 0.0 0.0 0.0 0.0 0.0 0.0 0.0 0.0 0.0 0.0 0.0 0.0 0.0 0.0 0.0 0.0 0.0 0.0 0.0 0.0 0.0 0.0 0.0 0.0 0.0 0.0 0.0 0.0 0.0 0.0 0.0 0.0 0.0 0.0 0.0 0.0 0.0 0.0 0.0 0.0 0.0 0.0 0.0 0.0 0.0 0.0 0.0 0.0 0.0 0.0 0.0 0.0
0.0392 8.2866 0.0229 0.374081 51.649909 -0.368669 -0.37371 4.255931 -0.0 -18.3631 -5.138933 10.385227 35.026861 -8.399213 106.547298 163.552891 74.323082 116.618403 0.117178 -0.00086 -0.840867 -0.242275 -0.003452 1.632817 125.906443 -25.876859 179.60802 18.613498 1.894051 -171.001412 9.899197 50.066522 -8.381253 148.715372 -75.486202 160.685565 -38.647709 76.402728 12.619894 -33.924277 24.627895 9.066813 -28.144513 -33.433994 156.878191 54.109551 -80.625502 -149.292515 -7.279273 63.341247 -19.386466 172.31735 36.723575 82.570139 -98.773889 -42.667829 -99.960306 -58.29235 -83.779616 -103.263111 156.786264 -53.205785 15.142603 35.263705 -6.529517 175.21514 30.42594 73.853249 -90.28816 157.838413 23.99807 -165.426594 167.447106 21.689575 80.489945 -19.74145 -14.763511 101.418716 -167.20591 -62.859098 -122.021133 59.804682 12.557831 -31.780472 162.028351 40.53254 -130.247015 -3.213668 8.365633 4.142269 53.035481 -9.819128 -153.143532 43.974768 -5.388277 -177.470366 -155.392954 -33.75996 -15.370641 145.446391 -37.347295 -29.621099 158.939484 -58.301382 138.746609 -0.016181 1.119488 4.407946 38.503327 18.228337 79.855896 -26.096008 32.680634 -0.0 13.262925 0.831324 87.638496 -114.480438 -57.755736 -100.858924 67.772971 13.640201 80.570202 -38.307118 68.608966 -0.0 0.071713 -0.410521 -89.921243 -111.480148 -32.333244 -95.753924
-0.0177 13.5774 0.065 8.051625 13.908585 6.964945 -30.986457 33.242065 -132.390113 30.659539 40.051253 140.093008 -150.876751 82.191427 35.855484 23.875272 17.089882 35.809358 50.027353 27.624626 55.569646 -31.660495 0.199389 -0.703202 19.665206 43.355334 -18.538199 -6.174442 20.577627 66.644551 -10.341515 65.451917 -99.843311 148.061034 -32.057005 133.988416 -160.96258 3.192497 90.019683 -8.82917 -38.254709 -6.977728 69.307545 -66.571333 11.528205 95.082969 6.273936 -105.7131 124.569807 60.666197 0.870714 119.708775 -56.417562 -122.012336 91.626722 -9.106944 32.462339 -116.154348 -26.673291 -157.656435 -104.692233 77.648306 -112.531898 -143.611786 -66.287573 -78.620055 -17.417495 -12.548017 -3.318895 -38.958167 6.96939 35.490815 -113.334176 59.655723 -41.802068 37.132298 38.653737 53.424112 174.733707 -3.575016 -100.21062 91.879614 -33.309201 -49.872091 135.702939 -8.618285 -100.74173 157.239282 -49.03528 -56.58079 107.133917 -60.932723 131.761531 -11.542237 1.010221 -7.261468 14.194278 -8.113167 22.754734 -74.344885 -49.549953 -47.175235 129.338305 -40.453221 113.338806 162.449858 39.270266 161.042236 -28.602119 -1.149298 -0.0 68.612196 -49.590204 63.642221 85.799067 55.286947 168.0405 47.594348 -1.521674 57.503236 -155.560174 70.168287 0.0 100.838252 18.955686 0.0 -54.703982 44.308077 153.952324 142.091266 19.521204 3.053133
-0.2798 17.9942 0.025 9.195873 12.216471 8.366061 -30.070378 30.895239 -50.452342 50.567665 -33.561231 80.375199 -141.781413 46.265508 160.848061 56.080959 -39.520336 -44.308436 42.170417 -0.869927 -2.255955 -35.146143 1.767614 -5.577361 -17.832293 -37.116047 -42.806012 83.75899 1.592836 -31.326489 89.598522 1.766671 74.742795 -167.164327 39.375642 151.002992 -153.461086 -8.662932 105.750178 -38.171892 11.768534 -19.596428 -130.230291 -36.147149 134.425833 158.284572 -36.192654 -149.894951 148.732791 -6.014939 -26.643283 172.236724 79.195675 13.738421 -23.470629 1.886741 161.598711 159.171759 4.104297 143.243424 110.879864 -41.913741 -13.429379 -22.013891 46.22085 132.865609 -27.942681 -60.482187 -16.228989 -169.755427 -12.330999 133.679317 24.249865 87.33426 128.212561 159.872529 23.721401 -77.674778 178.262084 24.547443 -116.124197 147.885779 -22.886307 -65.459853 151.180657 -20.453508 -124.765399 159.697281 -45.040004 -89.457101 94.088134 85.486596 -78.835879 -29.065626 67.171303 24.941894 100.498483 -56.747402 103.906227 107.359712 6.012922 176.254651 -16.220675 41.219826 22.066215 10.751828 -4.243629 -14.538902 34.480252 26.767155 47.344006 -91.21398 -43.760815 89.160286 90.845853 -61.862111 102.560599 79.600413 -37.713421 128.367848 143.316414 71.310283 38.181513 116.11412 50.980593 69.15052 30.510851 66.999124 118.642513 -115.447341 54.246124 -18.017552
-0.3558 20.6559 -0.0343 8.821015 7.741058 9.145077 -29.043582 15.475001 117.116624 -56.339167 30.800113 -85.2165 -132.692615 46.001056 18.123424 -61.240537 38.639589 143.619114 2.403221 -0.871606 -39.864959 -29.547743 5.033671 -18.925239 59.500807 61.523655 -43.92877 -92.74448 -2.9338 113.470772 170.846805 17.023999 -117.482571 -42.477608 39.159272 43.031556 -38.776532 78.636903 34.075483 42.24625 13.370464 59.594796 6.007462 -79.920948 -126.035655 -17.412852 -14.654498 -57.735849 11.349742 -61.313781 -163.401411 36.215504 -75.76804 -166.605137 -9.876034 2.095667 -148.663572 -68.094462 -43.127803 -62.907305 55.764658 -60.190989 -77.455961 -86.276049 18.453107 -56.042582 161.275031 -3.804551 -156.919454 -50.664327 -33.431095 -84.399279 63.63662 -75.603968 -52.144504 17.406776 -48.511314 61.099435 -178.118623 -4.798932 -130.483979 -132.543916 -40.810168 -98.892934 20.472099 57.548082 -8.476546 170.264812 29.525226 -118.953902 155.152359 -63.38148 168.975201 3.620028 -44.288543 -36.764619 117.956171 -73.02077 139.943132 -11.471432 -0.019257 -8.877705 179.003847 2.967241 103.843131 80.534791 34.044191 49.77815 76.097751 59.531492 50.259996 -126.454593 -19.963421 108.369476 72.186047 -64.284776 15.076265 70.680791 57.903399 128.996116 -11.162245 -1.245162 -20.376323 -25.796967 -4.117254 82.145455 56.428064 6.300899 -101.887619 36.624135 1.790559 88.250577
-0.5335000000000001 25.780900000000003 0.2167 9.643915 6.292962 9.097293 -27.834531 12.96758 -113.025047 47.944344 11.304163 124.834068 50.020965 80.424458 15.100547 43.616733 -14.458578 -82.498641 -4.631055 1.83219 -43.152587 -26.562286 6.077506 -25.349894 -157.340751 70.654099 -160.33456 -64.589738 13.844163 50.394138 -85.525457 -11.551541 -112.391836 1.808332 -41.82247 5.460246 -21.707615 52.500344 13.542998 97.483252 -71.144734 -62.45302 -5.313145 56.290002 82.534829 -90.75645 6.422994 83.027258 1.215162 -59.584683 -171.242075 142.886337 64.746176 17.563685 110.318965 -8.513279 -28.174734 99.063326 -78.350139 49.399461 132.44806 2.885817 4.416031 124.656718 -57.469325 15.597872 167.973903 -49.021899 -162.944529 -123.237823 -42.33835 -164.210583 137.666382 6.462222 0.424758 151.759388 -28.176054 -119.821156 6.6676 21.288536 11.788859 131.479856 28.177451 -136.814625 153.070362 -13.313418 -129.359092 72.524881 46.035888 -67.460372 103.461472 -66.478149 103.542101 10.296649 -52.003403 1.943223 2.344473 2.752476 0.141603 -97.288223 84.437168 115.003526 -70.333924 73.371907 87.195996 47.193279 -17.171905 -72.823155 47.143439 36.70083 47.893054 -95.921263 -44.454302 -5.008928 76.869996 43.636293 23.342515 102.786053 74.750424 113.410219 131.224869 71.273842 50.3135 116.365091 45.506151 -109.471375 -53.146454 -58.601534 -121.619697 -74.544549 1.992476 -34.394266
-0.7363999999999999 32.5456 0.5366 11.141992 6.56351 8.95453 -39.906794 16.179147 11.250086 -5.631909 -45.652965 -5.179884 -165.312052 70.158048 -25.055171 -39.207342 7.356577 173.3208 -18.892487 7.746089 -44.283534 -37.817034 6.427841 -18.619188 2.24685 -58.707616 -47.238324 -110.983492 -8.667932 -147.446656 7.304202 10.063746 -96.236711 146.992973 -61.505157 130.963099 18.672345 0.45825 -1.885521 -69.53886 -8.543592 -175.896113 89.303261 -7.416481 8.167661 -65.245653 -63.343499 -140.732661 -3.148905 -57.918362 -176.278069 149.860235 73.780972 -2.331865 120.134794 6.520696 -7.712089 -125.371141 39.913681 131.885145 117.35346 1.219112 9.786744 112.65138 34.294763 123.912174 139.02684 48.119829 -130.088632 96.402474 -0.579479 -110.835849 94.12635 51.467193 121.034886 136.024931 -18.035903 -169.65443 28.786363 69.938748 -10.895792 45.058834 -33.005119 89.984938 147.251807 21.703705 -131.875209 179.512136 -71.265882 -117.126917 126.424216 72.638766 -75.948009 -19.842505 29.254096 14.370714 67.374718 -61.363082 63.368293 -38.091687 -25.485233 -36.369776 83.330204 -7.974629 -26.673049 68.82327 62.355125 149.441055 -1.215522 4.711245 14.484782 39.347346 -73.878016 180.0 77.641188 -54.761904 -19.912449 162.103744 57.02442 70.815492 -0.006654 -0.021421 -17.255898 -41.296382 -7.681653 -0.0 12.150833 68.06847 -122.989128 -136.433907 -19.240652 -168.909161
